<?xml version="1.0" standalone="no"?>
<!DOCTYPE svg PUBLIC "-//W3C//DTD SVG 20010904//EN"
 "http://www.w3.org/TR/2001/REC-SVG-20010904/DTD/svg10.dtd">
<svg version="1.0" xmlns="http://www.w3.org/2000/svg"
 width="500.000000pt" height="500.000000pt" viewBox="0 0 500.000000 500.000000"
 preserveAspectRatio="xMidYMid meet">
<metadata>
Created by potrace 1.11, written by Peter Selinger 2001-2013
</metadata>
<g transform="translate(0.000000,500.000000) scale(0.100000,-0.100000)"
fill="#000000" stroke="none">
<path d="M162 2831 c1 -539 1 -545 69 -611 23 -22 44 -39 47 -39 4 1 9 1 12
-1 19 -7 50 -9 50 -2 0 4 3 16 6 27 4 15 -3 24 -28 38 -42 23 -65 55 -76 104
-4 21 -8 157 -7 303 l0 265 80 2 c44 1 85 2 91 2 7 1 14 9 17 19 2 9 8 25 12
34 6 16 -3 18 -96 20 l-104 3 -1 150 c-1 83 -2 154 -3 158 0 4 -16 7 -35 5
l-34 -2 0 -475z"/>
<path d="M644 3099 c-2 -3 9 -26 24 -50 15 -24 67 -113 116 -196 48 -84 89
-153 91 -153 1 0 25 39 53 88 27 48 79 138 115 200 l65 113 42 -73 c52 -90
146 -252 173 -296 18 -31 20 -32 32 -15 27 40 215 371 215 380 0 9 -920 12
-926 2z"/>
<path d="M2058 3004 c-2 -1 -17 -4 -34 -7 -43 -7 -114 -40 -145 -69 -14 -12
-37 -43 -50 -68 -23 -43 -24 -56 -27 -260 -4 -256 3 -303 56 -359 65 -68 210
-92 347 -56 17 4 35 10 40 14 6 3 12 6 15 7 24 4 62 26 66 38 3 8 1 24 -5 35
l-11 20 -45 -20 c-118 -52 -227 -60 -305 -22 -66 33 -84 69 -85 173 l0 84 55
3 c30 1 102 5 160 8 106 7 212 12 261 14 l27 1 -2 138 c-2 124 -5 142 -27 187
-29 57 -91 109 -148 125 -35 9 -138 20 -143 14z m137 -86 c80 -35 104 -84 109
-215 3 -88 2 -93 -18 -94 -12 -1 -43 -3 -71 -4 -27 -2 -116 -7 -197 -10 l-146
-7 2 104 c4 145 28 190 128 233 40 16 149 13 193 -7z"/>
<path d="M2837 3004 c-2 -2 -22 -6 -45 -8 -96 -9 -187 -84 -213 -174 -15 -53
-20 -406 -7 -481 20 -110 112 -171 262 -173 75 -1 155 17 218 48 46 23 47 25
37 54 l-11 30 -36 -16 c-166 -72 -313 -65 -376 20 -18 23 -21 42 -21 119 l0
91 50 3 c28 1 58 5 68 7 9 2 17 0 17 -6 0 -5 6 -6 13 -1 6 4 41 9 77 10 36 1
99 5 140 7 41 2 87 5 103 5 l27 1 0 128 c-1 149 -16 202 -72 260 -20 21 -58
45 -85 54 -45 17 -138 30 -146 22z m137 -95 c71 -35 90 -77 94 -201 3 -77 1
-98 -10 -99 -14 -1 -66 -4 -258 -14 -69 -3 -130 -8 -137 -10 -20 -7 -23 9 -24
107 0 62 5 105 15 130 18 42 69 87 118 104 54 19 147 11 202 -17z"/>
<path d="M3585 2995 c-33 -6 -75 -19 -94 -28 -42 -21 -38 -21 -44 4 -4 16 -12
20 -39 17 l-33 -3 0 -400 c0 -375 1 -400 18 -399 9 1 25 2 36 3 17 1 18 16 18
341 0 282 2 343 14 355 32 32 220 60 284 42 72 -19 117 -57 136 -115 9 -26 13
-126 13 -327 0 -283 1 -290 21 -296 52 -14 51 -22 50 314 -1 304 -2 313 -24
356 -40 77 -109 125 -197 137 -27 3 -51 8 -53 10 -2 2 -12 -1 -22 -6 -9 -6
-19 -6 -21 -2 -2 5 -30 3 -63 -3z"/>
<path d="M4800 2987 c-14 -7 -34 -30 -45 -52 -17 -36 -20 -65 -22 -270 -4
-301 -4 -306 -57 -361 -23 -24 -50 -44 -59 -44 -9 0 -17 -4 -17 -8 0 -5 -6 -9
-12 -10 -174 -14 -248 12 -295 107 -15 32 -18 70 -19 316 -1 154 -3 290 -3
303 -1 17 -7 22 -30 22 -16 0 -31 -6 -33 -12 -8 -22 -2 -581 7 -613 27 -101
111 -182 195 -188 17 -1 30 -4 30 -7 0 -10 150 2 156 12 3 4 11 5 19 1 8 -3
15 0 15 6 0 6 6 11 14 11 8 0 31 16 52 35 20 19 38 35 38 35 1 0 1 -53 0 -118
-2 -140 -15 -179 -73 -219 -43 -30 -52 -56 -24 -71 20 -12 76 17 112 56 54 61
54 63 55 532 1 434 1 435 24 474 13 22 20 46 17 57 -7 22 -12 23 -45 6z"/>
<path d="M585 2968 c12 -40 41 -133 144 -457 54 -172 104 -317 110 -321 12 -7
80 -6 85 1 1 2 40 146 85 319 75 286 100 362 102 320 0 -8 2 -22 4 -30 4 -13
69 -259 80 -300 2 -8 20 -78 40 -155 20 -77 41 -145 45 -151 11 -12 77 -11 89
2 5 5 46 126 91 269 45 143 98 310 117 370 53 165 53 157 8 153 -41 -3 -38 1
-80 -138 -12 -42 -143 -463 -166 -538 -6 -18 -12 -32 -14 -30 -2 2 -20 66 -40
143 -82 311 -116 441 -119 455 -30 118 -26 111 -64 108 l-35 -3 -54 -200
c-127 -475 -143 -532 -143 -502 0 9 -49 170 -120 397 -29 91 -53 172 -55 180
-2 8 -11 40 -22 70 -17 53 -20 55 -56 58 -36 3 -38 2 -32 -20z"/>
<path d="M2797 2026 c-41 -15 -107 -62 -107 -76 0 -5 -6 -15 -13 -22 -32 -32
-41 -161 -15 -213 56 -108 160 -153 291 -125 l57 11 0 42 c-1 42 -1 42 -15 16
-27 -50 -122 -67 -188 -33 -152 79 -153 299 -2 373 41 19 116 21 139 2 7 -6
16 -8 19 -4 4 3 7 2 7 -3 0 -6 7 -19 15 -30 13 -18 14 -16 11 18 -1 21 -5 40
-8 43 -13 14 -155 15 -191 1z"/>
<path d="M4440 2027 c-27 -7 -31 -11 -19 -18 14 -7 16 -36 16 -201 0 -106 -4
-198 -9 -205 -10 -12 -1 -20 20 -17 6 1 21 2 32 3 16 1 18 5 11 24 -4 12 -7
109 -7 215 1 107 -1 197 -4 201 -3 4 -21 4 -40 -2z"/>
<path d="M3155 1865 c-109 -46 -124 -197 -28 -261 36 -23 120 -26 155 -4 47
28 71 68 75 124 5 57 -17 102 -60 131 -32 20 -106 26 -142 10z m102 -28 c33
-15 54 -53 58 -100 6 -72 -39 -129 -101 -129 -110 0 -145 185 -43 235 32 15
45 14 86 -6z"/>
<path d="M3465 1872 c-29 -6 -40 -19 -28 -34 5 -7 9 -62 8 -121 0 -83 -4 -110
-15 -117 -15 -10 -8 -12 35 -12 43 0 49 2 37 14 -8 8 -12 46 -12 104 0 76 3
96 20 116 28 36 74 41 108 11 25 -21 27 -29 30 -118 3 -61 0 -101 -7 -109 -9
-11 -6 -15 15 -19 34 -6 70 3 53 13 -8 5 -13 43 -14 110 -3 99 -4 104 -33 133
-36 36 -108 46 -147 21 -19 -12 -24 -13 -27 -2 -1 8 -12 12 -23 10z"/>
<path d="M3823 1863 c-34 -18 -43 -30 -43 -65 0 -36 30 -62 93 -82 64 -20 73
-26 81 -52 13 -43 -61 -72 -114 -45 -14 7 -33 23 -42 35 l-18 21 0 -27 c0 -22
8 -31 38 -46 82 -42 174 -11 180 60 4 42 -20 63 -106 94 -67 23 -79 36 -64 69
10 21 19 25 53 25 25 0 52 -8 70 -21 l29 -20 0 20 c0 11 -9 25 -20 31 -33 17
-106 19 -137 3z"/>
<path d="M4095 1868 c-28 -15 -28 -15 -19 -30 5 -7 10 -48 10 -91 1 -43 7 -91
13 -106 11 -25 71 -72 71 -55 0 5 5 3 12 -4 8 -8 15 -9 25 -1 7 7 13 9 13 5 0
-4 13 0 30 9 32 17 41 19 38 8 -4 -10 5 -13 39 -13 21 0 24 3 15 12 -8 8 -12
55 -12 145 0 73 -2 133 -4 133 -18 0 -65 -24 -57 -29 6 -4 11 -43 12 -92 1
-109 2 -102 -21 -127 -39 -42 -114 -18 -124 38 -3 14 -5 67 -5 118 -1 50 -4
92 -8 92 -5 0 -17 -6 -28 -12z"/>
</g>
</svg>
