<?xml version="1.0" standalone="no"?>
<!DOCTYPE svg PUBLIC "-//W3C//DTD SVG 20010904//EN"
 "http://www.w3.org/TR/2001/REC-SVG-20010904/DTD/svg10.dtd">
<svg version="1.0" xmlns="http://www.w3.org/2000/svg"
 width="1500.000000pt" height="1500.000000pt" viewBox="0 0 1500.000000 1500.000000"
 preserveAspectRatio="xMidYMid meet">
<metadata>
Created by potrace 1.10, written by Peter Selinger 2001-2011
</metadata>
<g transform="translate(0.000000,1500.000000) scale(0.100000,-0.100000)"
fill="#000000" stroke="none">
<path d="M0 8245 l0 -6755 6743 2 6742 3 3 6753 2 6752 -6745 0 -6745 0 0
-6755z m610 2740 c7 -4 10 -144 10 -419 0 -307 3 -415 12 -424 9 -9 84 -12
274 -12 149 0 265 -4 268 -9 4 -5 -11 -45 -31 -88 l-38 -78 -233 -5 c-192 -4
-234 -8 -243 -20 -6 -10 -8 -284 -6 -750 3 -805 3 -800 64 -913 34 -62 112
-133 181 -165 29 -13 56 -31 59 -39 8 -20 -23 -117 -41 -133 -18 -14 -71 3
-165 52 -167 87 -259 231 -282 438 -6 61 -9 543 -7 1330 l3 1235 29 5 c38 7
132 4 146 -5z m2345 -566 c4 -5 0 -18 -7 -27 -15 -17 -108 -170 -108 -177 0
-2 -27 -49 -60 -105 -33 -56 -60 -103 -60 -106 0 -2 -46 -82 -102 -178 -57
-96 -139 -236 -182 -310 -44 -75 -83 -136 -87 -136 -4 0 -22 26 -40 58 -18 31
-69 120 -114 197 -45 77 -108 185 -140 240 -32 55 -71 121 -86 146 -16 25 -29
49 -29 52 0 4 -13 26 -30 49 -16 22 -30 45 -30 50 0 4 -11 26 -25 48 -50 79
-113 199 -107 204 11 11 1200 7 1207 -5z m1265 1 c0 -6 -36 -74 -80 -150 -44
-77 -84 -147 -89 -157 -6 -10 -50 -86 -99 -169 -50 -83 -109 -186 -133 -230
-24 -43 -48 -87 -54 -96 -130 -221 -156 -253 -172 -210 -4 9 -14 28 -23 42
-22 32 -119 199 -158 270 -16 30 -67 118 -114 195 -46 77 -87 147 -90 155 -3
8 -49 89 -101 180 -53 90 -93 168 -91 172 8 13 1204 10 1204 -2z m1678 -276
c254 -72 419 -231 476 -459 29 -113 36 -200 36 -466 0 -217 -3 -269 -14 -278
-18 -15 -95 -20 -1116 -72 -123 -6 -210 -15 -218 -22 -11 -9 -13 -52 -10 -227
5 -251 12 -278 95 -370 94 -104 244 -160 429 -160 182 0 361 44 548 135 104
51 96 53 143 -43 32 -64 33 -63 -92 -126 -98 -49 -161 -73 -216 -85 -19 -4
-40 -10 -45 -14 -25 -15 -215 -37 -321 -37 -262 1 -453 62 -579 185 -72 70
-118 159 -145 280 -17 72 -18 133 -18 605 0 289 4 543 8 565 5 22 14 65 20 95
28 135 132 288 254 373 72 50 188 107 217 107 12 0 31 5 42 11 58 31 401 33
506 3z m1962 16 c100 -12 165 -31 258 -76 106 -51 224 -169 275 -275 68 -138
71 -157 75 -528 2 -193 -1 -338 -6 -343 -11 -11 -225 -24 -1117 -69 -174 -8
-212 -13 -222 -26 -16 -20 -17 -248 -3 -371 22 -193 124 -302 341 -362 187
-52 482 -7 723 111 47 23 90 39 96 37 21 -7 79 -122 70 -139 -9 -15 -166 -93
-250 -124 -138 -49 -216 -64 -385 -72 -434 -20 -702 131 -776 437 -19 76 -20
114 -17 658 3 524 5 583 22 642 10 36 22 69 27 75 5 5 9 15 9 21 0 26 70 131
124 185 178 182 439 257 756 219z m2285 -16 c231 -50 410 -182 488 -361 59
-134 60 -136 64 -1002 4 -650 2 -795 -9 -802 -18 -12 -165 -11 -173 1 -3 5 -6
331 -5 723 0 432 -4 753 -10 813 -19 180 -83 291 -222 384 -104 69 -174 85
-378 85 -232 -1 -368 -28 -530 -108 l-65 -32 -3 -932 -2 -933 -23 -5 c-12 -3
-56 -5 -97 -3 l-75 3 0 1075 0 1075 95 0 95 0 3 -42 c4 -53 17 -55 105 -13 35
17 69 30 75 30 6 0 26 6 44 14 117 49 458 66 623 30z m2922 -34 c12 -25 22
-50 23 -57 0 -6 -16 -29 -36 -50 -35 -37 -56 -76 -77 -143 -7 -24 -13 -407
-17 -1185 -6 -1145 -6 -1150 -28 -1213 -62 -179 -138 -268 -293 -345 -53 -26
-104 -47 -112 -47 -19 0 -57 81 -57 121 0 24 8 32 58 59 81 43 124 80 167 145
68 103 75 149 75 492 0 168 -4 303 -9 303 -5 0 -30 -25 -56 -55 -65 -77 -137
-123 -274 -177 -52 -20 -191 -38 -296 -38 -404 0 -665 175 -754 505 -39 143
-42 240 -39 985 l3 715 90 0 90 0 5 -805 5 -805 27 -68 c39 -100 71 -148 135
-207 106 -97 235 -140 426 -140 134 0 246 19 324 56 114 54 216 151 268 254
10 19 26 68 36 110 17 68 19 124 19 617 0 428 3 566 15 659 25 191 58 260 157
327 71 49 96 46 125 -13z m-11295 -35 c9 -27 31 -97 48 -155 18 -58 37 -121
45 -140 7 -19 20 -62 30 -95 10 -33 24 -78 31 -100 15 -46 80 -259 119 -390
15 -49 37 -121 49 -160 13 -38 31 -97 41 -130 10 -33 23 -76 30 -95 18 -51 27
-81 105 -339 38 -129 72 -236 74 -239 8 -8 39 49 46 86 4 20 18 73 30 117 12
44 26 94 30 110 4 17 17 65 29 108 12 42 46 172 76 287 62 236 90 342 112 415
8 28 18 68 23 90 5 22 15 63 23 90 23 77 73 265 113 419 19 77 40 148 45 158
8 15 22 18 92 18 45 0 87 -4 93 -8 6 -4 16 -27 21 -52 11 -48 101 -397 127
-490 9 -30 18 -66 21 -80 3 -14 13 -49 21 -77 36 -132 64 -236 119 -453 61
-239 107 -414 149 -561 9 -31 16 -63 16 -72 0 -26 40 -111 48 -101 5 5 16 36
26 69 16 53 80 263 123 400 9 28 21 66 28 85 7 19 20 62 30 95 10 33 30 98 45
145 15 47 41 130 58 185 75 246 96 316 123 400 72 225 88 277 118 375 18 58
36 112 40 120 6 11 30 16 96 18 49 2 92 -1 98 -7 8 -8 -19 -106 -68 -241 -14
-39 -22 -66 -90 -285 -101 -325 -137 -441 -150 -475 -15 -42 -58 -174 -120
-375 -26 -82 -67 -215 -92 -295 -24 -80 -51 -161 -58 -180 -7 -19 -27 -82 -45
-140 -50 -168 -36 -155 -171 -158 -85 -2 -119 1 -127 10 -10 12 -24 66 -131
478 -22 85 -47 180 -55 210 -9 30 -18 66 -21 80 -3 14 -12 48 -20 75 -8 28
-21 77 -30 110 -8 33 -28 110 -44 170 -16 61 -50 193 -76 295 -26 102 -53 208
-61 235 -7 28 -16 62 -19 78 -3 15 -10 27 -15 27 -13 0 -32 -38 -41 -80 -3
-19 -14 -60 -22 -90 -23 -83 -62 -229 -102 -385 -20 -77 -46 -174 -57 -215
-11 -41 -24 -88 -28 -105 -4 -16 -18 -66 -30 -110 -12 -44 -26 -93 -30 -110
-4 -16 -17 -64 -28 -105 -11 -41 -37 -138 -57 -215 -74 -286 -86 -330 -97
-342 -8 -10 -41 -13 -127 -11 l-116 3 -29 90 c-15 50 -34 106 -41 125 -6 19
-19 58 -27 85 -9 28 -36 115 -61 195 -25 80 -67 213 -92 295 -67 216 -76 246
-90 285 -18 49 -106 328 -194 615 -51 167 -93 298 -106 335 -22 63 -35 106
-35 119 0 8 26 11 97 9 l98 -3 17 -50z m6182 -2526 c132 -31 126 -25 126 -124
0 -47 -3 -85 -6 -85 -9 0 -43 44 -44 56 0 14 -48 58 -85 77 -153 80 -423 18
-549 -125 -86 -98 -146 -257 -146 -385 0 -174 119 -385 273 -480 104 -66 147
-78 272 -77 99 0 115 3 160 26 57 30 119 90 134 131 19 49 31 19 31 -73 0 -97
-8 -110 -63 -110 -13 0 -43 -6 -68 -14 -24 -8 -84 -20 -133 -27 -306 -44 -593
122 -689 399 -71 205 -38 422 88 591 61 79 129 135 224 178 141 66 307 81 475
42z m4124 -1 c9 -9 12 -144 12 -546 0 -541 4 -606 37 -619 7 -3 13 -11 13 -19
0 -11 -22 -14 -103 -14 -57 0 -107 3 -110 7 -4 3 3 17 15 31 l23 24 3 518 3
518 -27 31 c-19 23 -22 32 -12 36 38 14 124 44 129 44 3 1 10 -4 17 -11z
m-3255 -448 c84 -32 153 -92 196 -170 36 -64 36 -66 36 -185 0 -115 -1 -123
-33 -187 -38 -78 -104 -142 -189 -183 -54 -27 -67 -29 -178 -29 -118 0 -121 0
-183 33 -80 43 -135 99 -175 176 -30 57 -31 66 -32 175 0 112 1 117 34 178 57
105 126 162 246 204 70 24 200 19 278 -12z m587 -3 c0 -46 8 -50 44 -24 63 45
104 57 196 57 104 0 161 -21 220 -80 82 -82 90 -118 99 -407 6 -222 7 -232 29
-255 12 -14 19 -28 15 -31 -3 -4 -53 -7 -110 -7 -83 0 -103 3 -103 15 0 7 6
18 13 22 28 17 37 77 37 253 0 203 -9 267 -48 330 -31 51 -113 100 -169 100
-76 0 -166 -58 -204 -132 -17 -33 -19 -60 -19 -263 0 -189 3 -231 16 -258 9
-18 23 -36 31 -40 30 -18 -3 -27 -101 -27 -56 0 -106 3 -109 7 -4 3 3 17 15
31 23 23 23 28 26 327 3 296 2 304 -18 323 -30 28 -16 47 48 70 85 29 92 28
92 -11z m1205 12 c107 -38 115 -44 115 -94 0 -24 -4 -46 -9 -49 -4 -3 -27 10
-49 30 -98 84 -250 96 -332 27 -28 -23 -31 -30 -28 -76 3 -44 8 -54 38 -79 21
-16 95 -49 173 -77 159 -57 198 -79 238 -134 24 -33 29 -50 29 -99 0 -64 -14
-93 -65 -141 -59 -55 -109 -71 -230 -71 l-110 -1 -95 51 -95 52 -3 47 c-5 69
9 74 57 22 22 -24 68 -59 101 -76 52 -28 71 -32 134 -33 168 0 250 114 149
208 -32 30 -64 44 -193 89 -149 50 -203 84 -236 147 -34 65 -6 174 57 218 81
59 247 77 354 39z m535 -269 c5 -272 6 -287 28 -328 12 -23 41 -56 64 -72 36
-26 49 -30 109 -30 61 0 72 3 110 33 86 66 84 57 87 336 3 214 1 250 -13 261
-25 20 -19 49 13 56 15 3 44 12 64 21 70 29 67 44 70 -351 3 -352 3 -355 26
-378 12 -14 19 -28 15 -31 -8 -9 -136 -9 -157 -1 -9 3 -16 17 -16 29 0 38 -18
39 -60 2 -106 -90 -329 -56 -402 61 -47 76 -51 97 -57 338 -5 202 -8 234 -23
251 -31 34 -22 49 40 71 105 36 96 58 102 -268z"/>
<path d="M5456 9984 c-101 -24 -185 -72 -262 -149 -58 -57 -77 -85 -104 -150
l-34 -80 -5 -265 c-4 -148 -2 -271 3 -277 11 -17 105 -17 411 2 138 8 357 21
488 29 132 8 244 19 249 24 7 7 9 96 6 259 l-4 248 -34 79 c-59 140 -197 242
-378 281 -90 19 -257 18 -336 -1z"/>
<path d="M7529 9985 c-121 -30 -244 -103 -309 -185 -86 -109 -113 -248 -108
-565 l3 -180 130 0 c72 0 225 6 340 13 116 7 302 17 415 24 113 6 221 14 240
17 l35 7 -1 235 c-1 251 -8 299 -59 399 -58 110 -187 196 -352 234 -87 19
-255 20 -334 1z"/>
<path d="M8582 7055 c-78 -24 -124 -65 -169 -150 -24 -45 -27 -60 -27 -155 1
-92 4 -112 27 -162 32 -70 87 -132 141 -161 32 -16 59 -21 122 -22 72 0 85 3
124 29 75 49 107 94 136 186 26 84 13 203 -32 290 -30 58 -105 124 -164 143
-62 20 -99 21 -158 2z"/>
</g>
</svg>
